
<svg xmlns="http://www.w3.org/2000/svg" clip-rule="evenodd" fill-rule="evenodd" image-rendering="optimizeQuality" shape-rendering="geometricPrecision" text-rendering="geometricPrecision" viewBox="0 0 865.61 565.37" style="fill: rgb(0, 0, 0);" original_string_length="4700"><g><path d="M703.52 102.78l33.19 0 -25.7 -52.96 -0.12 -0.24 -24.06 -49.58 -31.03 41.78 -45.29 61 29.81 0c-4.43,31.31 -11.99,62.01 -22.45,91.61 -4.79,13.56 -10.19,26.89 -16.19,39.94 -11.84,25.79 -25.98,50.5 -42.25,73.76 -0.23,0.79 -0.46,1.58 -0.7,2.36 -0.56,0.32 -1.11,0.65 -1.67,0.98 -13.16,18.46 -27.67,35.98 -43.46,52.38 -20.07,20.85 -42.2,39.89 -66.22,56.73 -0.45,0.32 -0.91,0.64 -1.36,0.95 -33.45,23.28 -70.55,42.32 -110.83,56.11l-3.37 1.14c-46.4,15.48 -96.97,24.01 -151.04,24.05 -0.13,0 -0.27,0 -0.4,0 -22.98,0 -44.43,-6.58 -62.56,-17.97 -33.2,-20.85 -55.28,-57.79 -55.28,-99.88 0,-63.11 49.64,-114.66 112,-117.7 1.93,-0.09 3.88,-0.14 5.84,-0.14 21.01,0 40.75,5.5 57.83,15.15 -0.76,-6.41 -1.15,-12.94 -1.15,-19.56 0,-16.22 2.35,-31.89 6.73,-46.69 20.12,-68.02 83.09,-117.67 157.63,-117.67 66.5,0 123.79,39.52 149.66,96.35 6.51,14.31 11.04,29.72 13.21,45.87 0.98,7.24 1.48,14.63 1.48,22.14 0,0.42 -0,0.84 -0,1.26 0.89,-1.55 1.78,-3.12 2.66,-4.68 4.13,-7.38 8.06,-14.87 11.77,-22.46 10.94,-22.37 20.04,-45.61 27.2,-69.45 -8.61,-18.58 -19.67,-35.79 -32.75,-51.24 -41.63,-49.14 -103.79,-80.35 -173.23,-80.35 -105.2,0 -193.71,71.64 -219.4,168.78 -0.55,-0 -1.09,-0.01 -1.64,-0.01 -99.62,0 -180.4,80.79 -180.4,180.4 0,77.62 49.05,143.81 117.84,169.25 19.36,7.16 40.29,11.1 62.12,11.15l0.44 0c0.18,0 0.36,0 0.54,0 0.04,-0 0.08,-0 0.12,-0 105.73,-0.12 203.67,-30.24 285.7,-82.87l7.22 -4.72c15.17,-10.09 29.77,-20.96 43.76,-32.56 37.5,-31.11 70.56,-67.47 98.14,-108.15 8.01,-11.8 15.55,-23.97 22.61,-36.47 10.29,-18.23 19.55,-37.19 27.7,-56.79 17.22,-41.41 29.49,-85.72 36.08,-132.27l1.24 -8.77zm-521.32 462.57c2.12,-0.02 2.12,-0.02 0,0zm-1.18 0.01l-0.06 0 -0.01 0 -0.02 0 0.09 -0z" style="fill: rgb(12, 30, 59);"/><path d="M407.36 424.49l0 -187.91 -67.49 0 0 219.91c23.4,-8.7 45.98,-19.4 67.49,-32z" style="fill: rgb(220, 193, 111);"/><path d="M259.02 301.85l-9.05 0 0 177.58c22.82,-3.36 45.37,-8.44 67.49,-15.31l0 -162.28 -58.44 0z" style="fill: rgb(220, 193, 111);"/><path d="M497.25 171.32l-67.49 0 0 239.1c1.95,-1.31 3.88,-2.63 5.8,-3.97l1.31 -0.92c21.64,-15.18 41.85,-32.34 60.37,-51.19l0 -183.03z" style="fill: rgb(12, 30, 59);"/><path d="M736.23 235.6l56.51 0c9.5,0 17.26,7.77 17.26,17.27l0 56.51c0,9.5 -7.76,17.27 -17.26,17.27l-56.51 0c-9.5,0 -17.27,-7.77 -17.27,-17.27l0 -56.51c0,-9.5 7.77,-17.27 17.27,-17.27z" style="fill: rgb(12, 30, 59);"/><path d="M821.08 181.93l34.1 0c5.74,0 10.43,4.69 10.43,10.42l0 34.1c0,5.73 -4.69,10.42 -10.43,10.42l-34.1 0c-5.72,0 -10.42,-4.69 -10.42,-10.42l0 -34.1c0,-5.73 4.69,-10.42 10.42,-10.42z" style="fill: rgb(220, 193, 111);"/><path d="M778.61 151.88l19 0c3.2,0 5.8,2.61 5.8,5.8l0 19c0,3.19 -2.6,5.8 -5.8,5.8l-19 0c-3.19,0 -5.8,-2.61 -5.8,-5.8l0 -19c0,-3.19 2.61,-5.8 5.8,-5.8z" style="fill: rgb(12, 30, 59);"/><path d="M830.18 145.86l9.5 0c1.6,0 2.9,1.31 2.9,2.9l0 9.5c0,1.6 -1.3,2.9 -2.9,2.9l-9.5 0c-1.59,0 -2.9,-1.31 -2.9,-2.9l0 -9.5c0,-1.6 1.31,-2.9 2.9,-2.9z" style="fill: rgb(12, 30, 59);"/><path d="M682.35 252.74l0 0zm-0.39 0.93l0 0zm-5.33 12.2l0 0zm-3.42 7.43l0 0zm-10.45 21.06l0 0zm-0.47 0.9l0 0zm-52.04 207.55l-141.32 0c-43.58,26.92 -90.35,47.19 -139.04,60.71l0 1.85 280.36 0c91.46,0 165.62,-74.17 165.62,-165.63 0,-21.06 -3.93,-41.2 -11.1,-59.73l-28.54 0c-16.85,0 -30.64,-13.79 -30.64,-30.64l0 -45.07c-7.11,-5.01 -14.62,-9.48 -22.5,-13.34l-0.35 0.84 -0.03 0.07 -0.38 0.9 -0.39 0.92 -0.38 0.89 -0.02 0.05 -0.36 0.85 -0.04 0.1 -0.35 0.81 -0.06 0.14 -0.33 0.76 -0.08 0.17 -0.31 0.72 -0.1 0.22 -0.41 0.93 -0.28 0.64 -0.13 0.3 -0.26 0.6 -0.15 0.34 -0.03 0.06 -0.38 0.87 -0.23 0.52 -0.19 0.42 -0.21 0.48 -0.21 0.46 -0.04 0.1 -0.8 1.77 -0.16 0.36 -0.26 0.57 -0.14 0.31 -0.28 0.61 -0.13 0.28 -0.3 0.65 -0.11 0.24 -0.32 0.69 -0.09 0.2 -0.34 0.73 -0.07 0.15 -0.36 0.77 -0.05 0.11 -0.38 0.81 -0.03 0.07 -0.42 0.89 -0.42 0.89 -0.42 0.88 -0.02 0.05 -0.4 0.84 -0.04 0.09 -0.38 0.8 -0.06 0.13 -0.36 0.76 -0.08 0.16 -0.35 0.72 -0.1 0.2 -0.45 0.92 -0.31 0.64 -0.14 0.28 -0.29 0.6 -0.15 0.32 -0.28 0.56 -0.18 0.36 -0.26 0.52 -0.2 0.4 -0.45 0.92 -0.22 0.44 -0.24 0.48 -0.2 0.4 -0.26 0.51 -0.18 0.36 -0.28 0.55 -0.16 0.32 -0.3 0.59 -0.14 0.28 -0.32 0.63 -0.46 0.91 -0.1 0.2 -0.36 0.71 -0.08 0.16 -0.39 0.75 -0.06 0.12 -0.41 0.79 -0.04 0.08 -0.43 0.82 -0.02 0.05 -0.45 0.87 -0.47 0.9 -0.44 0.83 -0.04 0.07 -0.42 0.79 -0.06 0.11 -0.4 0.75 -0.08 0.15 -0.38 0.72 -0.1 0.19 -0.36 0.67 -0.12 0.23 -0.34 0.63 -0.14 0.27 -0.32 0.6 -0.16 0.3 -0.3 0.56 -0.19 0.34 -1.47 2.69 -0.22 0.4 -0.28 0.49 -0.2 0.36 -0.3 0.53 -0.18 0.32c34.08,16.81 57.53,51.91 57.53,92.48 0,56.91 -46.15,103.07 -103.06,103.06z" style="fill: rgb(220, 193, 111);"/></g></svg>
